<svg width="49" height="39" viewBox="0 0 49 39" fill="none" xmlns="http://www.w3.org/2000/svg">
<path d="M41.9618 1.17464C38.7747 0.0472685 35.4493 0.648147 32.5594 2.85489C31.0314 1.44103 28.6055 0.21841 24.7557 0.0246507C19.221 -0.254302 14.0711 1.84488 10.6282 5.78188C8.2742 8.4739 7.04693 11.6703 7.28608 14.4201C6.93111 14.5106 6.57395 14.6176 6.21801 14.7516C2.52747 16.1358 0.208136 19.3254 0.0130813 23.2845C-0.157259 26.7403 1.47684 29.7261 4.4945 31.4769C7.36241 33.1393 10.9757 33.4263 14.0941 32.3909C15.0076 32.0871 15.8753 31.6636 16.6734 31.1339C18.1529 32.693 19.412 34.3247 20.75 38.3263L20.9297 38.8624L21.3724 38.5304C25.315 35.5735 29.1322 33.4703 32.7166 32.2801C35.7825 31.2623 38.7808 30.8775 41.6298 31.1359L42.4563 31.2105L42.008 30.4865C40.9421 28.7683 40.0141 24.9263 41.1779 21.6236C41.513 21.5801 41.8467 21.5037 42.1798 21.3934C43.7267 20.88 45.2329 19.6604 46.4485 17.9053C48.44 15.0275 49.2042 11.3381 48.4419 8.27586C47.6324 5.02267 45.148 2.30226 41.9618 1.17464Z" fill="#F7931E"/>
</svg>
